<?xml version="1.0" encoding="UTF-8" standalone="no"?>
<svg
   xmlns:dc="http://purl.org/dc/elements/1.1/"
   xmlns:cc="http://creativecommons.org/ns#"
   xmlns:rdf="http://www.w3.org/1999/02/22-rdf-syntax-ns#"
   xmlns:svg="http://www.w3.org/2000/svg"
   xmlns="http://www.w3.org/2000/svg"
   xmlns:sodipodi="http://sodipodi.sourceforge.net/DTD/sodipodi-0.dtd"
   xmlns:inkscape="http://www.inkscape.org/namespaces/inkscape"
   width="157.38655mm"
   height="145.44077mm"
   viewBox="0 0 157.38655 145.44077"
   version="1.1"
   id="svg8"
   inkscape:version="1.0.2 (e86c870879, 2021-01-15)"
   sodipodi:docname="logo.svg"
   inkscape:export-filename="/home/frd/Code/src/github.com/cryptellation/website/static/img/big_logo.png"
   inkscape:export-xdpi="130.62857"
   inkscape:export-ydpi="130.62857">
  <defs
     id="defs2" />
  <sodipodi:namedview
     id="base"
     pagecolor="#8c00a3"
     bordercolor="#666666"
     borderopacity="1.0"
     inkscape:pageopacity="0"
     inkscape:pageshadow="2"
     inkscape:zoom="0.60883383"
     inkscape:cx="37.011051"
     inkscape:cy="251.19553"
     inkscape:document-units="mm"
     inkscape:current-layer="layer1"
     inkscape:document-rotation="0"
     showgrid="false"
     inkscape:window-width="1366"
     inkscape:window-height="713"
     inkscape:window-x="0"
     inkscape:window-y="27"
     inkscape:window-maximized="1"
     fit-margin-top="0"
     fit-margin-left="0"
     fit-margin-right="0"
     fit-margin-bottom="0" />
  <metadata
     id="metadata5">
    <rdf:RDF>
      <cc:Work
         rdf:about="">
        <dc:format>image/svg+xml</dc:format>
        <dc:type
           rdf:resource="http://purl.org/dc/dcmitype/StillImage" />
        <dc:title></dc:title>
      </cc:Work>
    </rdf:RDF>
  </metadata>
  <g
     inkscape:label="Calque 1"
     inkscape:groupmode="layer"
     id="layer1"
     transform="translate(-27.679696,-33.332233)">
    <path
       id="path857"
       style="opacity:1;fill:#ffffff;fill-opacity:1;stroke-width:0.49862"
       d="m 153.78052,38.851046 a 10.65631,10.65631 0 0 0 -0.51194,0.01114 10.65631,10.65631 0 0 0 -10.16329,10.970653 10.65631,10.65631 0 0 0 10.81397,10.3296 10.65631,10.65631 0 0 0 10.49363,-10.65504 l -0.0198,-0.65068 A 10.65631,10.65631 0 0 0 153.78054,38.851046 Z m -0.0196,2.708071 a 7.948298,7.948298 0 0 1 7.92921,7.462962 l 0.0147,0.48532 a 7.948298,7.948298 0 0 1 -7.8269,7.94734 7.948298,7.948298 0 0 1 -8.06588,-7.70459 7.948298,7.948298 0 0 1 7.58056,-8.182726 7.948298,7.948298 0 0 1 0.36828,-0.0083 z" />
    <path
       id="path857-6"
       style="fill:#ffffff;fill-opacity:1;stroke-width:0.49862"
       d="m 70.503143,33.33226 a 10.65631,10.65631 0 0 0 -0.51194,0.01114 10.65631,10.65631 0 0 0 -10.16329,10.970651 10.65631,10.65631 0 0 0 10.81397,10.329595 10.65631,10.65631 0 0 0 10.49363,-10.655031 l -0.0198,-0.650685 A 10.65631,10.65631 0 0 0 70.503163,33.33226 Z m -0.0196,2.708071 a 7.948298,7.948298 0 0 1 7.92921,7.462958 l 0.0147,0.485324 a 7.948298,7.948298 0 0 1 -7.82689,7.947337 7.948298,7.948298 0 0 1 -8.06588,-7.704582 7.948298,7.948298 0 0 1 7.58056,-8.182731 7.948298,7.948298 0 0 1 0.36828,-0.0083 z" />
    <path
       id="path857-6-7"
       style="fill:#ffffff;fill-opacity:1;stroke-width:0.49862"
       d="m 38.359899,101.34698 a 10.65631,10.65631 0 0 0 -0.51194,0.0111 10.65631,10.65631 0 0 0 -10.16329,10.97065 10.65631,10.65631 0 0 0 10.81397,10.32959 10.65631,10.65631 0 0 0 10.49363,-10.65503 l -0.0198,-0.65068 a 10.65631,10.65631 0 0 0 -10.61255,-10.00567 z m -0.0196,2.70807 a 7.948298,7.948298 0 0 1 7.92921,7.46296 l 0.0147,0.48532 a 7.948298,7.948298 0 0 1 -7.82689,7.94734 7.948298,7.948298 0 0 1 -8.06588,-7.70458 7.948298,7.948298 0 0 1 7.58056,-8.18273 7.948298,7.948298 0 0 1 0.36828,-0.008 z" />
    <path
       id="path857-6-7-5"
       style="fill:#ffffff;fill-opacity:1;stroke-width:10;stroke-miterlimit:4;stroke-dasharray:none"
       d="m 88.276514,157.46042 a 10.65631,10.65631 0 0 0 -0.51194,0.0111 10.65631,10.65631 0 0 0 -10.16329,10.97065 10.65631,10.65631 0 0 0 10.81397,10.32959 10.65631,10.65631 0 0 0 10.49363,-10.65503 l -0.0198,-0.65068 a 10.65631,10.65631 0 0 0 -10.61255,-10.00567 z m -0.0196,2.70807 a 7.948298,7.948298 0 0 1 7.92921,7.46296 l 0.0147,0.48532 a 7.948298,7.948298 0 0 1 -7.82689,7.94734 7.948298,7.948298 0 0 1 -8.06588,-7.70458 7.948298,7.948298 0 0 1 7.58056,-8.18273 7.948298,7.948298 0 0 1 0.36828,-0.008 z" />
    <path
       id="path857-6-7-5-3"
       style="fill:#ffffff;fill-opacity:1;stroke-width:0.49862"
       d="m 174.43388,125.44827 a 10.65631,10.65631 0 0 0 -0.51194,0.0111 10.65631,10.65631 0 0 0 -10.16329,10.97065 10.65631,10.65631 0 0 0 10.81397,10.32959 10.65631,10.65631 0 0 0 10.49363,-10.65503 l -0.0198,-0.65068 A 10.65631,10.65631 0 0 0 174.4339,125.44823 Z m -0.0196,2.70807 a 7.948298,7.948298 0 0 1 7.92921,7.46296 l 0.0147,0.48532 a 7.948298,7.948298 0 0 1 -7.82689,7.94734 7.948298,7.948298 0 0 1 -8.06588,-7.70458 7.948298,7.948298 0 0 1 7.58056,-8.18273 7.948298,7.948298 0 0 1 0.36828,-0.008 z" />
    <path
       style="fill:none;stroke:#ffffff;stroke-width:4;stroke-linecap:round;stroke-linejoin:miter;stroke-miterlimit:4;stroke-dasharray:none;stroke-opacity:1"
       d="M 46.715189,94.492187 61.871329,61.83922"
       id="path954" />
    <path
       style="fill:none;stroke:#ffffff;stroke-width:4;stroke-linecap:round;stroke-linejoin:miter;stroke-miterlimit:4;stroke-dasharray:none;stroke-opacity:1"
       d="m 105.03219,160.66879 48.8545,-15.30885"
       id="path954-5" />
    <path
       style="fill:none;stroke:#ffffff;stroke-width:3.90819;stroke-linecap:round;stroke-linejoin:miter;stroke-miterlimit:4;stroke-dasharray:none;stroke-opacity:1"
       d="m 89.649613,44.563309 44.874637,2.901925"
       id="path954-5-6" />
    <path
       style="fill:none;stroke:#ffffff;stroke-width:4;stroke-linecap:round;stroke-linejoin:miter;stroke-miterlimit:4;stroke-dasharray:none;stroke-opacity:1"
       d="m 50.355577,127.73356 23.199789,25.48958"
       id="path954-5-6-2" />
    <path
       style="fill:none;stroke:#ffffff;stroke-width:4;stroke-linecap:round;stroke-linejoin:miter;stroke-miterlimit:4;stroke-dasharray:none;stroke-opacity:1"
       d="M 157.50998,67.894335 170.7222,115.77185"
       id="path954-5-6-9" />
    <path
       style="fill:none;stroke:#ffffff;stroke-width:4;stroke-linecap:round;stroke-linejoin:miter;stroke-miterlimit:4;stroke-dasharray:none;stroke-opacity:1"
       d="M 85.602745,57.793217 156.32741,125.81462"
       id="path954-5-6-9-1" />
    <path
       style="fill:none;stroke:#ffffff;stroke-width:4;stroke-linecap:round;stroke-linejoin:miter;stroke-miterlimit:4;stroke-dasharray:none;stroke-opacity:1"
       d="M 74.824299,62.957687 89.850068,148.04106"
       id="path954-5-6-9-1-2" />
  </g>
</svg>
